PathFileType	4	(x/y/z)	S02_P20_T24
DataRate	CameraRate	NumFrames	NumMarkers	Units	OrigDataRate	OrigDataStartFrame	OrigNumFrames
240	240	8	51	mm	240	1	353
Frame#	Time	Sternum			R.Acromium			L.Acromium			Top.Head			R.ASIS			L.ASIS			R.PSIS			L.PSIS			R.Great.Tro			L.Great.Tro			R.Iliac.Crest			L.Iliac.Crest			V.Sacral			R.Thigh.Upper.Post			R.Thigh.Lower.Ant			R.Thigh.Lower.Post			R.Thigh.Upper.Ant			R.Knee.Lat			R.Knee.Med			R.Shank.Upper.Post			R.Shank.Lower.Ant			R.Shank.Lower.Post			R.Shank.Upper.Ant			R.Ankle.Lat			R.Ankle.Med			R.Heel.Upper			R.Heel.Med			R.Heel.Lat			R.Toe.Lat			R.Toe.Med			R.Toe.Tip			L.Thigh.Upper.Post			L.Thigh.Lower.Ant			L.Thigh.Lower.Post			L.Thigh.Upper.Ant			L.Knee.Lat			L.Knee.Med			L.Shank.Upper.Post			L.Shank.Lower.Ant			L.Shank.Lower.Post			L.Shank.Upper.Ant			L.Ankle.Lat			L.Ankle.Med			L.Heel.Upper			L.Heel.Med			L.Heel.Lat			L.Toe.Lat			L.Toe.Med			L.Toe.Tip			Cervical.Spine			Back			
		X1	Y1	Z1	X2	Y2	Z2	X3	Y3	Z3	X4	Y4	Z4	X5	Y5	Z5	X6	Y6	Z6	X7	Y7	Z7	X8	Y8	Z8	X9	Y9	Z9	X10	Y10	Z10	X11	Y11	Z11	X12	Y12	Z12	X13	Y13	Z13	X14	Y14	Z14	X15	Y15	Z15	X16	Y16	Z16	X17	Y17	Z17	X18	Y18	Z18	X19	Y19	Z19	X20	Y20	Z20	X21	Y21	Z21	X22	Y22	Z22	X23	Y23	Z23	X24	Y24	Z24	X25	Y25	Z25	X26	Y26	Z26	X27	Y27	Z27	X28	Y28	Z28	X29	Y29	Z29	X30	Y30	Z30	X31	Y31	Z31	X32	Y32	Z32	X33	Y33	Z33	X34	Y34	Z34	X35	Y35	Z35	X36	Y36	Z36	X37	Y37	Z37	X38	Y38	Z38	X39	Y39	Z39	X40	Y40	Z40	X41	Y41	Z41	X42	Y42	Z42	X43	Y43	Z43	X44	Y44	Z44	X45	Y45	Z45	X46	Y46	Z46	X47	Y47	Z47	X48	Y48	Z48	X49	Y49	Z49	X50	Y50	Z50	X51	Y51	Z51	

1	0	NaN	NaN	NaN	-1384.1	1321.6	485.96	-1413.9	1336.6	194.91	-1312.8	1606.5	334.9	NaN	NaN	NaN	-1331.6	915.37	231.71	-1556.2	962.57	374.32	-1557.4	967.3	300.07	-1439.3	812.89	528.15	-1440.5	823.4	134.77	-1447	962.27	492.83	-1455.6	967.19	161.16	-1586.6	920.27	330.47	-1477.7	605.52	505.16	NaN	NaN	NaN	-1522	528.17	485.16	-1415.5	597.6	482.39	-1527.6	446.65	468.07	-1554.7	441.65	324.24	-1666.2	270.64	454.29	NaN	NaN	NaN	-1680.1	196.24	446.88	NaN	NaN	NaN	-1700.3	103.91	429.88	-1690	116.13	343.12	-1759	89.466	375.38	-1743.7	55.782	348.12	-1757.8	57.647	410.81	-1594.8	43.802	454.1	-1560.8	38.773	348.18	-1510.3	64.042	403.96	-1368	594.25	156.94	-1265.5	554.71	165.36	-1331.8	514.51	183.05	-1311	634.93	139.84	-1249.7	477	178.07	-1253.6	473.72	321.86	-1281.3	292.82	186.32	-1183.6	232.21	191.18	-1255.5	222.35	202.2	-1213.9	300.76	176.17	-1186.1	117.01	207.42	-1168.9	123.22	288.22	-1229.6	67.002	248.23	-1211.7	50.307	283.33	-1215.7	39.302	222.54	-1057.6	77.14	182.03	-1037.9	107.21	284.62	-987.97	136.93	233.44	-1477	1394.1	351.31	-1559.1	1144.3	357.91
2	0.0041667	-1293.4	1083	328.45	-1379.5	1320.6	485.34	-1409	1335.5	194.25	-1308.4	1605.6	334.31	NaN	NaN	NaN	-1326.1	914.02	231.67	-1550.8	961.35	373.75	-1552.5	966.26	299.47	-1434.2	811.71	527.88	-1434.9	822.25	134.77	-1442.2	960.97	492.7	-1449.7	965.55	160.52	-1581.4	919.16	329.87	-1473.1	604.59	504.88	NaN	NaN	NaN	-1517.3	527.21	484.9	-1410.7	596.61	482.24	-1523.2	445.68	467.8	-1550	440.66	323.99	-1663.5	271.19	454.15	NaN	NaN	NaN	-1677.7	196.44	446.75	NaN	NaN	NaN	-1699.4	104.44	430.14	-1689.3	117.14	343.34	-1758.6	90.745	375.62	-1743.4	57.095	348.22	-1757.7	58.805	410.89	-1594.9	43.785	454.21	-1560.8	38.754	348.23	-1510.3	63.891	404.02	-1362.9	593.28	156.97	-1260.4	553.62	165.72	-1326.9	513.44	183.01	-1305.7	633.94	140.26	-1245	475.65	178.23	-1249	472.51	321.66	-1277.3	291.33	186.26	-1180.2	230.4	191.54	-1252.5	221.12	202.29	-1210	299.14	176.43	-1183.3	115.39	207.64	-1166.4	121.41	288.53	-1227.1	65.692	248.17	-1209.5	48.774	283.26	-1213.2	38.014	222.43	-1054.9	75.117	182.83	-1035.6	104.95	285.57	-985.3	134.58	234.64	-1472.4	1393	350.63	-1554.2	1143.1	357.37
3	0.0083333	-1288.4	1081.9	328.11	-1374.7	1319.6	484.69	-1403.8	1334.3	193.55	-1303.7	1604.6	333.7	NaN	NaN	NaN	-1320.4	912.63	231.63	-1545.1	960.08	373.16	-1547.3	965.19	298.85	-1428.9	810.49	527.6	-1429	821.07	134.75	-1437.1	959.63	492.55	-1443.6	963.87	159.86	-1576	918.01	329.24	-1468.3	603.63	504.59	NaN	NaN	NaN	-1512.5	526.21	484.63	-1405.7	595.59	482.09	-1518.6	444.67	467.53	-1545	439.62	323.74	-1660.6	271.8	454	NaN	NaN	NaN	-1675.2	196.73	446.62	NaN	NaN	NaN	-1698.5	105.05	430.41	-1688.4	118.21	343.59	-1758.2	92.152	375.88	-1743.2	58.541	348.34	-1757.5	60.088	410.99	-1595	43.757	454.31	-1560.7	38.736	348.29	-1510.4	63.726	404.09	-1357.5	592.29	157	-1255	552.49	166.09	-1321.7	512.34	182.99	-1300.2	632.91	140.69	-1240.1	474.25	178.41	-1244.2	471.26	321.47	-1273.2	289.8	186.21	-1176.7	228.51	191.95	-1249.4	219.83	202.39	-1206.1	297.46	176.72	-1180.5	113.74	207.89	-1163.9	119.53	288.89	-1224.6	64.433	248.13	-1207.4	47.256	283.2	-1210.8	36.775	222.33	-1052.1	72.987	183.65	-1033.3	102.52	286.55	-982.59	132.02	235.89	-1467.6	1392	349.89	-1549	1141.9	356.8
4	0.0125	-1283.2	1080.8	327.75	-1369.8	1318.6	484.01	-1398.5	1333.2	192.81	-1299	1603.6	333.06	NaN	NaN	NaN	-1314.4	911.23	231.58	-1539.3	958.79	372.56	-1541.9	964.09	298.21	-1423.4	809.26	527.32	-1423	819.9	134.72	-1431.8	958.28	492.4	-1437.4	962.19	159.19	-1570.3	916.83	328.59	-1463.4	602.65	504.28	NaN	NaN	NaN	-1507.4	525.17	484.34	-1400.4	594.56	481.93	-1513.7	443.62	467.27	-1539.8	438.52	323.49	-1657.6	272.47	453.86	NaN	NaN	NaN	-1672.6	197.12	446.51	NaN	NaN	NaN	-1697.5	105.77	430.71	-1687.5	119.35	343.88	-1757.7	93.696	376.16	-1742.9	60.132	348.47	-1757.2	61.507	411.1	-1595	43.717	454.42	-1560.6	38.721	348.36	-1510.4	63.544	404.15	-1352	591.27	157.04	-1249.5	551.31	166.46	-1316.4	511.21	182.97	-1294.6	631.84	141.11	-1235.1	472.81	178.59	-1239.1	469.99	321.28	-1268.9	288.27	186.16	-1173.1	226.58	192.39	-1246.3	218.5	202.51	-1202	295.73	177.05	-1177.7	112.09	208.19	-1161.4	117.62	289.28	-1222.2	63.251	248.12	-1205.4	45.778	283.17	-1208.5	35.612	222.25	-1049.4	70.76	184.49	-1030.9	99.936	287.56	-979.86	129.26	237.18	-1462.7	1390.9	349.11	-1543.7	1140.6	356.18
5	0.016667	-1277.8	1079.6	327.37	-1364.8	1317.6	483.31	-1393	1332	192.04	-1294.1	1602.6	332.4	NaN	NaN	NaN	-1308.3	909.83	231.52	-1533.2	957.47	371.93	-1536.3	962.98	297.57	-1417.7	808.01	527.03	-1416.7	818.73	134.68	-1426.4	956.94	492.23	-1430.9	960.53	158.51	-1564.5	915.63	327.93	-1458.3	601.67	503.97	NaN	NaN	NaN	-1502.1	524.1	484.04	-1395	593.51	481.77	-1508.6	442.55	467.02	-1534.3	437.38	323.24	-1654.5	273.22	453.71	NaN	NaN	NaN	-1669.9	197.64	446.41	NaN	NaN	NaN	-1696.5	106.6	431.03	-1686.4	120.55	344.21	-1757.1	95.391	376.46	-1742.5	61.882	348.62	-1756.9	63.076	411.22	-1595.1	43.664	454.52	-1560.6	38.71	348.42	-1510.4	63.346	404.2	-1346.4	590.23	157.08	-1243.9	550.1	166.82	-1311.1	510.06	182.97	-1288.8	630.75	141.53	-1229.9	471.35	178.78	-1234	468.71	321.09	-1264.7	286.75	186.12	-1169.5	224.61	192.88	-1243.1	217.15	202.64	-1197.9	293.98	177.42	-1174.9	110.46	208.52	-1158.9	115.68	289.72	-1219.8	62.173	248.15	-1203.4	44.364	283.16	-1206.2	34.55	222.2	-1046.7	68.451	185.34	-1028.7	97.196	288.58	-977.14	126.3	238.5	-1457.6	1389.8	348.29	-1538.2	1139.3	355.52
6	0.020833	-1272.2	1078.5	326.99	-1359.7	1316.6	482.58	-1387.4	1330.8	191.23	-1289	1601.7	331.72	-1316.2	906.03	441.35	-1302	908.44	231.45	-1527	956.14	371.3	-1530.5	961.86	296.93	-1412	806.76	526.74	-1410.3	817.59	134.63	-1420.8	955.6	492.05	-1424.4	958.89	157.83	-1558.5	914.43	327.27	-1453	600.69	503.65	NaN	NaN	NaN	-1496.6	523	483.73	-1389.4	592.47	481.61	-1503.3	441.46	466.8	-1528.6	436.2	323	-1651.2	274.04	453.57	NaN	NaN	NaN	-1667.2	198.3	446.33	NaN	NaN	NaN	-1695.5	107.54	431.38	-1685.3	121.83	344.59	-1756.4	97.249	376.79	-1742.1	63.806	348.78	-1756.5	64.811	411.36	-1595.1	43.599	454.62	-1560.5	38.705	348.49	-1510.5	63.131	404.26	-1340.7	589.2	157.13	-1238.3	548.87	167.18	-1305.6	508.91	182.98	-1282.9	629.65	141.93	-1224.7	469.88	178.98	-1228.7	467.43	320.91	-1260.4	285.26	186.1	-1165.9	222.62	193.42	-1239.9	215.79	202.79	-1193.7	292.21	177.83	-1172.2	108.86	208.9	-1156.4	113.73	290.21	-1217.5	61.22	248.21	-1201.6	43.036	283.18	-1204.1	33.612	222.16	-1044.2	66.077	186.18	-1026.4	94.316	289.62	-974.47	123.15	239.84	-1452.4	1388.7	347.42	-1532.5	1138	354.81
7	0.025	-1266.5	1077.4	326.59	-1354.5	1315.6	481.84	-1381.7	1329.6	190.4	-1283.9	1600.7	331.02	-1310.9	905.07	441.3	-1295.6	907.07	231.37	-1520.7	954.81	370.66	-1524.6	960.75	296.3	-1406.1	805.51	526.45	-1403.8	816.48	134.55	-1415	954.3	491.86	-1417.8	957.31	157.15	-1552.4	913.22	326.6	-1447.7	599.73	503.33	NaN	NaN	NaN	-1490.9	521.88	483.41	-1383.6	591.45	481.44	-1497.8	440.36	466.6	-1522.7	434.97	322.77	-1647.8	274.94	453.44	-1607.1	172.81	432.95	-1664.5	199.14	446.27	NaN	NaN	NaN	-1694.4	108.62	431.76	-1684	123.19	345.03	-1755.6	99.285	377.14	-1741.6	65.918	348.96	-1756.1	66.729	411.52	-1595.1	43.527	454.72	-1560.5	38.709	348.56	-1510.5	62.898	404.31	-1335	588.17	157.18	-1232.5	547.63	167.52	-1300.1	507.78	183	-1277	628.53	142.3	-1219.4	468.41	179.19	-1223.3	466.16	320.74	-1256.1	283.82	186.09	-1162.3	220.64	193.99	-1236.6	214.43	202.96	-1189.4	290.45	178.28	-1169.5	107.31	209.33	-1154	111.79	290.74	-1215.3	60.409	248.31	-1199.9	41.813	283.23	-1202.1	32.814	222.16	-1041.8	63.658	187.02	-1024.3	91.312	290.65	-971.84	119.82	241.19	-1447.1	1387.6	346.51	-1526.8	1136.8	354.06
8	0.029167	-1260.7	1076.3	326.19	-1349.3	1314.7	481.09	-1375.9	1328.5	189.53	-1278.8	1599.8	330.31	-1305.3	904.1	441.24	-1289.1	905.75	231.28	-1514.3	953.5	370.02	-1518.6	959.65	295.67	-1400.2	804.29	526.16	-1397.2	815.43	134.44	-1409.2	953.03	491.66	-1411.1	955.78	156.47	-1546.2	912.03	325.93	-1442.2	598.79	503	NaN	NaN	NaN	-1485	520.75	483.08	-1377.6	590.46	481.26	-1492.1	439.24	466.43	-1516.5	433.71	322.57	-1644.2	275.92	453.32	-1604.7	173.53	433.33	-1661.8	200.17	446.25	NaN	NaN	NaN	-1693.2	109.82	432.17	-1682.6	124.63	345.51	-1754.7	101.51	377.52	-1741	68.235	349.16	-1755.6	68.846	411.7	-1595	43.451	454.82	-1560.4	38.725	348.63	-1510.5	62.646	404.36	-1329.2	587.16	157.23	-1226.8	546.4	167.84	-1294.5	506.66	183.03	-1271.1	627.43	142.65	-1214	466.96	179.41	-1217.9	464.92	320.59	-1251.8	282.44	186.09	-1158.7	218.68	194.62	-1233.3	213.09	203.15	-1185.2	288.71	178.77	-1166.9	105.84	209.8	-1151.7	109.89	291.32	-1213.2	59.753	248.44	-1198.3	40.709	283.32	-1200.3	32.168	222.19	-1039.6	61.219	187.85	-1022.2	88.204	291.68	-969.29	116.34	242.52	-1441.7	1386.5	345.56	-1521	1135.5	353.27
